<svg width="203" height="44" viewBox="0 0 203 44" fill="none" xmlns="http://www.w3.org/2000/svg">
<g clip-path="url(#clip0_29487_1486)">
<path d="M20.7213 0.567627H8.70553V1.62776H12.5347V22.1891C12.5347 28.369 10.868 30.1091 7.16567 30.1091C4.83463 30.1091 4.4534 28.2857 4.4534 27.3417C4.4534 25.0978 4.33347 23.7155 2.34687 23.7155C0.348396 23.7151 0.116211 25.7904 0.116211 26.4324C0.116211 29.2602 2.24228 31.4286 7.69403 31.4286C14.199 31.4286 16.7676 29.1674 16.7676 21.6478V1.62025L20.7217 1.62776V0.567627H20.7213ZM21.5301 26.659C20.8631 26.659 20.3083 26.8782 19.8562 27.3516C19.3945 27.8273 19.1646 28.3939 19.1646 29.0766C19.1646 29.7589 19.3991 30.3207 19.8611 30.7712C20.3278 31.247 20.8849 31.4638 21.5301 31.4638C22.1899 31.4638 22.7447 31.247 23.2209 30.7712C23.678 30.3203 23.9102 29.7589 23.9102 29.0766C23.9102 28.3841 23.678 27.8198 23.2209 27.3516C22.7619 26.8782 22.2071 26.659 21.5301 26.659ZM47.2793 26.659C46.6168 26.659 46.0647 26.8782 45.6076 27.3516C45.1483 27.8273 44.9283 28.3939 44.9283 29.0766C44.9283 29.7589 45.1483 30.3207 45.6076 30.7712C46.0889 31.247 46.6364 31.4638 47.2793 31.4638C47.9464 31.4638 48.5084 31.247 48.9801 30.7712C49.4418 30.3203 49.669 29.7589 49.669 29.0766C49.669 28.3841 49.4418 27.8198 48.9801 27.3516C48.5157 26.8782 47.9513 26.659 47.2793 26.659ZM38.2011 16.8683H35.8038V1.76121L37.9785 1.72844C44.9992 1.72844 46.5314 4.71022 46.5314 9.53509C46.5314 14.3904 43.7701 16.8683 38.2011 16.8683ZM39.8114 0.567627L28.0474 0.569996V1.62776H31.5003V25.0903C31.5003 26.9338 31.3926 27.0219 31.1949 27.5533C30.98 28.155 30.4961 28.621 29.78 28.9258C29.2497 29.1599 28.4409 29.2807 27.3708 29.3111V30.6709H40.0314V29.3111C38.9612 29.2807 38.1375 29.1599 37.6049 28.9609C36.852 28.6514 36.3563 28.2005 36.1168 27.5786C35.9114 27.0598 35.8041 26.5966 35.8041 25.6621V18.0291L38.9367 18.0165C48.0372 18.0165 50.5904 14.3098 50.5904 9.25555C50.5904 4.146 49.0241 0.567627 39.8114 0.567627ZM86.796 27.4724C86.6297 26.9334 86.5492 26.2737 86.5492 25.4275V1.63052H89.5964V0.567627H82.1676C82.0626 0.842036 73.2089 23.5667 73.2089 23.5667C73.1921 23.6075 73.1638 23.6423 73.1277 23.6665C73.0916 23.6907 73.0493 23.7032 73.0063 23.7025C72.9109 23.7025 72.8277 23.6547 72.7936 23.5667C72.7936 23.5667 63.3828 0.842036 63.2729 0.567627L55.0131 0.575129V1.63289H58.4319V24.506L58.3587 26.629C58.3 27.1905 58.1292 27.6868 57.8648 28.0871C57.584 28.5203 57.1318 28.8503 56.538 29.0616C56.1445 29.1927 55.5629 29.2882 54.8395 29.3032V30.6705H63.2361V29.3131C62.5395 29.2878 62.2365 29.2124 61.8211 29.0687C61.2223 28.8646 60.7629 28.5574 60.4625 28.1116C60.2008 27.701 60.025 27.2126 59.9663 26.6282L59.8686 24.5052V4.78327H60.3598C60.3598 4.78327 70.9898 30.3914 71.1024 30.6709H71.9944L82.0573 5.06281H82.3113V25.4279C82.3113 26.3167 82.2232 26.9994 82.0573 27.5356C81.8546 28.155 81.427 28.6233 80.8013 28.9384C80.3465 29.1524 79.6381 29.276 78.712 29.3135V30.6709H90.1926V29.3135C89.2761 29.2681 88.5604 29.1398 88.0811 28.9155C87.4167 28.5807 86.9818 28.097 86.796 27.4724ZM102.155 30.2224C97.5508 30.2224 96.8347 27.8502 96.8347 20.245C96.8347 14.3675 97.1937 9.95282 102.155 9.95282C107.511 9.95282 107.533 14.521 107.533 19.8695C107.533 27.5707 106.265 30.2224 102.155 30.2224ZM102.235 8.61592C96.1064 8.61592 92.2673 12.8114 92.2673 20.1269C92.2673 30.8419 100.354 31.5522 102.096 31.5522C105.554 31.5522 112.105 29.3313 112.105 19.9255C112.105 12.6049 107.91 8.61592 102.235 8.61592ZM128.128 8.94837C124.465 8.94837 123.199 11.1819 122.195 13.4562C122.195 13.4562 121.926 13.4337 121.902 13.4463C121.877 13.4562 121.171 9.13275 121.171 9.13275H114.221V10.2711H118.041V25.0907C118.041 26.5587 117.968 27.7045 117.606 28.3217C117.181 29.0343 116.296 29.3115 114.838 29.3115H114.222V30.6713H126.103V29.3115H125.463C123.901 29.3115 123.105 28.9613 122.689 28.264C122.315 27.6544 122.144 26.612 122.144 25.0911V17.4096C122.144 14.8085 124.166 11.8468 126.443 11.8468C128.823 11.8468 128.908 15.3699 131.465 14.1108C133.285 13.2118 132.879 8.94837 128.128 8.94837ZM169.239 26.1959C169.239 26.2689 169.231 26.3195 169.16 26.3645L169.07 26.4525C167.039 28.3536 165.483 29.0363 164.349 29.0363C161.439 29.0363 161.001 26.5283 161.001 25.2767C161.001 21.2703 166.316 19.2709 169.239 19.2709V26.1959ZM175.46 28.4697C174.19 28.4697 173.786 27.7393 173.689 26.5204L173.618 23.7704V14.7579C173.618 12.8114 173.315 11.5018 172.203 10.3587C171.106 9.20777 168.99 8.61592 165.923 8.61592C162.983 8.61592 160.798 9.18487 159.41 10.2805C158.052 11.3458 157.526 12.3329 157.526 13.7381C157.526 14.3979 157.695 14.8586 158.052 15.1658C158.411 15.4959 158.831 15.6443 159.344 15.6443C160.524 15.6443 161.194 15.0225 161.439 13.4258C161.617 12.2346 161.871 11.5574 162.44 10.9403C163.039 10.2805 163.992 9.95322 165.275 9.95322C166.758 9.95322 167.816 10.3638 168.408 11.1946C168.952 11.9728 169.239 13.0306 169.239 14.3375V17.9411C165.429 18.3036 156.443 19.0443 156.842 26.1102C156.989 28.8701 159.352 31.2952 162.404 31.2952C165.778 31.2952 167.914 29.3159 169.366 27.7294C169.598 29.2278 170.952 31.0259 173.41 31.0259C176.174 31.0259 177.831 29.6282 178.021 26.1331H177.31C177.124 27.654 176.21 28.4697 175.46 28.4697ZM199.746 28.3363C200.251 29.0087 200.997 29.2278 202.255 29.3159V30.6705H192.356V29.3206C193.084 29.2653 193.644 29.1038 194.001 28.8496C194.497 28.512 194.639 27.9782 194.763 27.3362C194.846 26.7771 194.873 25.9361 194.873 24.7599V17.7192C194.873 16.0119 194.763 13.8589 194.206 12.7028C193.703 11.6703 192.864 11.1618 191.3 11.1618C189.561 11.1618 188.009 12.0182 187.161 13.5644C186.372 14.9846 186.386 17.279 186.386 19.661V25.3423C186.386 26.8027 186.569 27.8052 186.975 28.3844C187.339 28.9309 188.038 29.2203 189.072 29.306V30.6709H178.803V29.3163C179.588 29.2783 180.199 29.1828 180.59 29.0114C181.2 28.7422 181.613 28.2913 181.787 27.6315C181.951 27.0827 182.039 26.2539 182.039 25.1081V10.2655L178.803 10.2557V9.14262L185.277 9.13236L186.005 13.0306L186.337 13.0254C187.168 11.3533 188.979 8.87295 193.152 8.87295C194.308 8.87295 195.366 9.10985 196.29 9.58563C197.189 10.0665 197.925 10.797 198.438 11.7639C198.956 12.7486 199.127 13.96 199.127 15.3652V25.1235C199.127 26.2184 199.237 27.6639 199.746 28.3363ZM143.103 23.4332C140.403 23.4332 138.854 22.4209 138.854 16.7471C138.854 12.7506 140.21 9.77673 143.103 9.77673C146.48 9.77673 147.46 12.4865 147.46 16.6666C147.46 22.6526 145.635 23.4332 143.103 23.4332ZM153.325 7.75202C152.707 7.95615 152.302 8.5176 152.086 9.46441C151.925 10.3409 151.602 10.8444 151.175 10.9881C150.747 11.1239 150.017 11.1365 149.699 10.8823C148.633 9.86477 146.586 8.61828 142.999 8.61828C137.209 8.61828 134.661 12.8742 134.661 16.7471C134.661 21.2924 136.351 23.496 140.076 24.2967C140.298 24.3473 140.298 24.6063 140.105 24.6517C136.931 25.3138 134.116 26.2733 134.116 29.381C134.116 31.2596 135.157 32.2897 136.491 32.8512C137.969 33.4683 140.046 33.7881 142.649 33.8383C144.919 33.8636 146.532 33.9492 147.585 34.0776C148.719 34.2134 149.619 34.5435 150.281 35.0421C150.967 35.5886 151.322 36.3944 151.322 37.4471C151.322 38.8874 150.584 40.0435 149.091 40.9022C147.705 41.6931 145.814 42.1108 143.458 42.1108C141.447 42.1108 139.79 41.8893 138.294 40.9323C137.197 40.2247 136.982 38.8396 137.209 37.8372C137.417 36.8272 137.065 35.7647 135.926 35.5681C135.303 35.4571 134.521 35.8073 134.154 36.394C133.815 36.9354 133.692 37.5825 133.692 38.3556C133.692 40.9141 135.613 42.1104 137.072 42.5586C139.31 43.2562 140.791 43.4323 142.849 43.4323C145.569 43.4323 147.785 42.9992 149.366 42.1709C150.945 41.35 152.049 40.34 152.638 39.1816C153.259 38.0156 153.552 36.822 153.552 35.6814C153.552 34.1301 153.222 32.8709 152.587 31.9391C150.517 29.013 147.584 29.3806 140.984 29.0608C137.807 29.0608 137.196 28.4689 137.196 27.4641C137.196 25.9807 138.374 25.4042 142.966 24.6738C147.489 23.9536 151.709 22.2361 151.709 16.5398C151.709 14.9005 151.335 13.4953 150.886 12.5082C151.827 12.7198 152.696 12.7171 153.488 12.4529C154.402 12.1635 154.999 11.6873 155.338 11.0276C155.683 10.3627 155.815 9.60221 155.668 8.97758C155.38 7.66674 154.442 7.39193 153.325 7.75202Z" fill="#D1D5DB"/>
</g>
<defs>
<clipPath id="clip0_29487_1486">
<rect width="202.313" height="42.8647" fill="white" transform="translate(0.0292969 0.567627)"/>
</clipPath>
</defs>
</svg>
