<svg width="50" height="50" viewBox="0 0 50 50" fill="none" xmlns="http://www.w3.org/2000/svg">
<path d="M28.672 29.6974C28.368 29.1374 27.928 28.7134 27.352 28.4254C26.792 28.1214 26.128 27.9694 25.36 27.9694C24.032 27.9694 22.968 28.4094 22.168 29.2894C21.368 30.1534 20.968 31.3134 20.968 32.7694C20.968 34.3214 21.384 35.5374 22.216 36.4174C23.064 37.2814 24.224 37.7134 25.696 37.7134C26.704 37.7134 27.552 37.4574 28.24 36.9454C28.944 36.4334 29.456 35.6974 29.776 34.7374H24.568V31.7134H33.496V35.5294C33.192 36.5534 32.672 37.5054 31.936 38.3854C31.216 39.2654 30.296 39.9774 29.176 40.5214C28.056 41.0654 26.792 41.3374 25.384 41.3374C23.72 41.3374 22.232 40.9774 20.92 40.2574C19.624 39.5214 18.608 38.5054 17.872 37.2094C17.152 35.9134 16.792 34.4334 16.792 32.7694C16.792 31.1054 17.152 29.6254 17.872 28.3294C18.608 27.0174 19.624 26.0014 20.92 25.2814C22.216 24.5454 23.696 24.1774 25.36 24.1774C27.376 24.1774 29.072 24.6654 30.448 25.6414C31.84 26.6174 32.76 27.9694 33.208 29.6974H28.672Z" fill="#FF866A"/>
<path fill-rule="evenodd" clip-rule="evenodd" d="M44.1574 41.6582C47.804 37.2508 50 31.5668 50 25.3623C50 11.3551 38.8071 0 25 0C11.1929 0 0 11.3551 0 25.3623C0 31.5668 2.19608 37.2509 5.84269 41.6583L21.6038 16.3278C23.1692 13.812 26.831 13.812 28.3963 16.3278L44.1574 41.6582Z" fill="#587AE1"/>
</svg>
