<svg width="109" height="46" viewBox="0 0 109 46" fill="none" xmlns="http://www.w3.org/2000/svg">
<path fill-rule="evenodd" clip-rule="evenodd" d="M100.469 40.5871C99.1156 39.82 98.906 37.6514 98.9366 32.3805L98.9672 24.3011L96.4012 24.2973L96.9774 22.8H98.9672V18.9739L103.734 17.0608L103.733 22.6723L105.918 22.6767L105.341 24.3343L103.734 24.3318L103.726 38.3139C103.831 39.4405 104.18 40.103 104.678 40.5865H100.469V40.5871ZM53.6275 6.03622C53.9917 7.11832 54.8155 8.23549 54.2296 9.48918C53.9444 10.7604 52.8355 11.7918 51.6636 11.9972C50.4439 12.1174 49.272 11.8945 48.3686 11.0867C47.7192 7.41013 49.0977 4.0079 51.7739 1.98083L53.6275 6.03622Z" fill="#D1D5DB"/>
<path fill-rule="evenodd" clip-rule="evenodd" d="M58.3556 17.2381C57.7454 19.463 51.6876 18.0027 49.7872 14.3519C52.2816 14.6525 55.0929 12.2559 55.1402 9.5244L58.3556 17.2381ZM60.8338 16.95C61.1109 16.8167 61.6703 16.5161 61.8083 15.8717L55.2909 0.537611C54.8556 0.477494 54.5381 0.434285 53.984 0.863868L60.8338 16.95ZM63.7641 13.6211C66.5367 9.06789 64.2005 1.59403 58.2292 0.546378L63.7641 13.6211ZM63.1527 23.4251C64.0256 22.6298 65.5634 22.611 66.5575 23.122C66.9771 23.3493 67.3784 23.653 67.6399 24.05L65.7199 27.2901C65.4751 27.0809 65.3002 26.987 64.9862 26.8167C64.0348 26.3714 63.0309 26.6319 62.4537 27.1949V36.6482C62.4415 38.282 62.703 39.773 63.4841 40.5495H59.1188C58.2113 39.7924 57.9844 38.5801 57.8967 37.5186L57.8615 24.9505C57.9007 23.9329 57.6606 23.4827 57.2854 22.9141L61.8077 22.9335C62.1754 23.2172 62.1922 23.71 62.385 24.0895L63.1527 23.4251ZM68.6709 26.5317C68.6357 25.3382 68.8804 23.9085 68.16 22.8759H72.3556C72.635 23.1032 72.792 23.4827 72.8797 23.8421C73.1066 24.164 73.0893 24.6186 73.1932 24.9981L73.2284 38.391C73.4033 39.1862 73.6827 39.9909 74.2242 40.6159L69.7371 40.6259C68.2702 39.0873 68.7505 36.553 68.6368 33.9392L68.6709 26.5317ZM75.3072 26.6645C75.7603 25.2993 77.1752 24.618 78.2056 23.8797C79.7764 23.2548 81.5059 21.7011 83.2689 22.9711C84.7357 24.0118 86.0276 25.1872 86.9536 26.7966C87.1805 27.4216 87.2849 28.1223 87.4431 28.7855C87.4431 29.6759 87.6169 30.3385 87.5995 31.229C87.6515 32.1952 87.6515 33.0675 87.5995 34.0137C87.5464 35.6231 86.8485 37.0628 85.6784 38.1805C83.9322 39.8669 81.7322 41.78 79.3579 40.4725C77.2272 39.3923 74.7126 37.2519 74.8696 34.3168C74.783 32.2328 74.6958 30.4337 74.9573 28.406C75.0624 27.8192 75.0093 27.1761 75.3072 26.6645ZM79.6713 36.136C79.8809 36.9688 80.2826 37.9914 81.208 38.1054C81.7495 38.1248 82.1519 37.632 82.4653 37.2149C83.4438 35.1321 83.3041 32.8584 83.3041 30.4906C82.9895 28.7297 83.3739 26.3238 81.6277 25.2436C81.0164 24.9975 80.5453 25.4528 80.1608 25.8686C79.4797 26.9864 79.4012 28.2645 79.3579 29.686C79.1304 31.9597 79.3752 33.844 79.6713 36.136ZM90.7081 40.5871C89.3539 39.82 89.1455 37.6514 89.1761 32.3806L89.2067 24.3012L86.6395 24.2974L87.2157 22.8001H89.2067V18.974L93.9738 17.0609L93.9715 22.6724L96.1564 22.6768L95.5803 24.3343L93.9738 24.3318L93.9645 38.3139C94.0696 39.4405 94.4188 40.103 94.9159 40.5865H90.7081V40.5871ZM47.1225 24.9499C47.0942 23.9298 46.9216 23.4821 46.5464 22.9135L51.0687 22.9329C51.4359 23.2166 51.4532 23.7094 51.6454 24.0889L52.4138 23.4245C53.2866 22.6292 54.8233 22.6104 55.8185 23.1214C56.2382 23.3487 56.6394 23.6524 56.9009 24.0494L54.9809 27.2894C54.7361 27.0803 54.5612 26.9864 54.2472 26.816C53.2959 26.3708 52.2914 26.6313 51.7147 27.1943V36.6476C51.702 38.2814 51.9641 39.7724 52.7457 40.5489H48.3804C47.4724 39.7918 47.2137 38.6627 47.1577 37.518L47.1225 24.9499ZM12.9141 29.9233L11.2614 33.5898C10.1391 35.7533 8.56493 38.4085 6.14963 39.0679C5.21445 39.4223 4.38895 39.1011 3.48437 39.0335L0.570312 44.2072C0.788521 44.4602 1.09621 44.6744 1.39639 44.799C6.52428 46.92 8.58859 44.6374 13.6386 32.2622L18.4074 43.2861H24.7585L21.7584 35.846L23.4568 32.0004L28.1477 43.1157L34.2257 43.1583L23.5895 17.7992L18.6897 20.4406L22.5291 29.9045L20.8458 33.6236L13.8094 17.1442L8.6469 19.9972L12.9141 29.9233ZM32.4368 34.3932C32.5592 32.5546 33.4845 30.8313 35.0564 29.9033C36.6104 28.8612 38.4265 28.4442 40.0331 27.5355C40.3125 27.2894 40.6617 26.9864 40.679 26.5887C40.6964 26.0959 40.4695 25.7164 40.0677 25.5467C37.623 24.9781 35.5973 26.6451 33.8165 28.2939C34.0433 27.0803 34.2177 25.7546 34.7418 24.6186C35.0039 24.3156 35.1609 23.8985 35.5102 23.6718C37.2391 22.7431 39.4044 22.4783 41.3429 22.6292C42.9321 22.7425 44.399 23.9736 44.9399 25.5467C45.2193 26.2856 45.202 27.1185 45.2539 27.8768L45.2718 38.1436C45.2891 39.0341 45.673 39.8682 46.162 40.5871H41.639C41.0976 40.0561 40.8314 39.3935 40.679 38.5607C39.4131 39.773 36.7715 41.5734 35.1961 40.3792C33.563 39.5826 32.0702 36.9118 32.4368 34.3932ZM40.4516 30.8219C40.417 30.1112 39.9453 30.0366 39.6134 30.0366C38.531 30.2063 37.5987 31.1901 37.0815 32.1952C36.6185 33.0957 36.5094 33.8522 36.4702 34.6387C36.4661 35.4866 36.4176 36.1159 36.7322 36.7609C36.9066 37.1767 37.291 37.3665 37.6582 37.4798C38.3561 37.6314 39.0032 37.4235 39.5441 37.0258C40.8187 36.2481 40.5913 34.6944 40.6092 33.3124L40.4516 30.8219ZM107.979 38.2006C108.206 38.4523 108.32 38.7485 108.32 39.0911C108.32 39.443 108.206 39.7455 107.977 39.9972C107.749 40.2477 107.474 40.3729 107.151 40.3729C106.828 40.3729 106.552 40.2483 106.324 39.9997C106.213 39.8819 106.124 39.7405 106.065 39.5842C106.006 39.4279 105.977 39.2601 105.979 39.0911C105.979 38.7473 106.092 38.4517 106.319 38.2006C106.547 37.9438 106.825 37.8167 107.151 37.8167C107.474 37.8167 107.749 37.9438 107.979 38.2006ZM108.154 38.004C108.024 37.8587 107.868 37.7438 107.696 37.6664C107.523 37.589 107.338 37.5506 107.152 37.5537C106.779 37.5537 106.454 37.6934 106.177 37.9708C105.882 38.2695 105.734 38.6421 105.734 39.0911C105.734 39.5238 105.871 39.8882 106.144 40.1844C106.418 40.4819 106.754 40.6297 107.152 40.6297C107.538 40.6297 107.869 40.4844 108.145 40.1957C108.283 40.0537 108.392 39.8821 108.465 39.6919C108.538 39.5017 108.574 39.2971 108.57 39.0911C108.57 38.6665 108.431 38.3045 108.154 38.004ZM107.328 38.9752C107.26 39.0206 107.181 39.0425 107.102 39.0378H106.942V38.5438H107.043C107.145 38.5438 107.224 38.555 107.282 38.5794C107.366 38.6151 107.408 38.6796 107.408 38.7729C107.407 38.8663 107.38 38.9333 107.328 38.9752ZM106.942 39.3447H107.029L107.119 39.3509C107.167 39.3518 107.214 39.3609 107.26 39.3779C107.286 39.3881 107.31 39.4045 107.33 39.4261C107.35 39.4476 107.365 39.4737 107.375 39.5025C107.388 39.5394 107.396 39.6089 107.399 39.7116C107.404 39.8143 107.411 39.8926 107.425 39.9477H107.818L107.805 39.9001C107.794 39.868 107.789 39.834 107.791 39.7999V39.6471C107.791 39.4737 107.745 39.3466 107.652 39.2658C107.586 39.2151 107.509 39.1817 107.429 39.1681C107.528 39.1593 107.622 39.1192 107.701 39.0529C107.775 38.989 107.811 38.885 107.811 38.7423C107.811 38.5538 107.742 38.4179 107.603 38.3352C107.506 38.2823 107.4 38.2522 107.293 38.2469C107.184 38.2445 107.076 38.2437 106.968 38.2444C106.774 38.2432 106.629 38.2432 106.531 38.2432V39.9483H106.942V39.3447Z" fill="#D1D5DB"/>
</svg>
