<svg width="162" height="34" viewBox="0 0 162 34" fill="none" xmlns="http://www.w3.org/2000/svg">
<g clip-path="url(#clip0_29487_1480)">
<path d="M16.7475 0.929199C6.99918 0.929199 0.429688 7.99947 0.429688 17.0013C0.429688 26.0032 6.99918 33.0734 16.7475 33.0734C26.4957 33.0734 33.0652 26.0032 33.0652 17.0013C33.0652 7.99947 26.4957 0.929199 16.7475 0.929199ZM16.7475 32.0165C9.8954 32.0165 5.37446 27.0601 5.37446 17.0013C5.37446 6.94258 9.8954 1.9861 16.7475 1.9861C23.5995 1.9861 28.1204 6.94258 28.1204 17.0013C28.1204 27.0601 23.5642 32.0165 16.7475 32.0165ZM56.341 2.27765V3.04299C58.2483 3.04299 59.0959 3.48033 59.0959 4.82878C59.0959 5.88568 58.3542 7.23414 55.0342 12.7737C53.1269 15.7622 52.1379 18.0218 51.82 18.7871C51.3962 17.5844 50.3719 15.0333 48.0408 10.8422C47.2991 9.49371 46.5927 8.43681 45.9923 7.52569C44.8267 5.7399 44.4029 4.82878 44.4029 4.20922C44.4029 3.29811 44.8267 3.15233 46.3102 3.00655V2.27765H42.0718C37.8334 2.27765 35.0784 2.13187 35.0784 2.13187V2.89721C37.9747 3.33455 39.7407 4.53723 44.5442 12.5186C47.7583 17.9124 48.1821 19.7347 48.3234 22.14V23.1605C48.3234 26.3312 48.3234 28.4085 48.0408 29.6112C47.7583 31.1054 46.8753 31.1054 44.968 31.397V32.1623C45.7097 32.1623 48.0408 31.8708 50.1953 31.8708C52.5264 31.8708 55.4227 32.1623 55.4227 32.1623V31.397C53.692 31.2512 52.6677 31.1054 52.3498 29.6112C52.0673 28.4085 52.0673 26.2947 52.0673 23.1605V21.9578C52.2086 19.844 52.9503 17.9124 55.7052 13.3933C59.9436 6.32302 61.8156 3.62611 65.3122 3.04299V2.13187C64.5705 2.13187 62.0981 2.27765 59.3432 2.27765H56.341ZM144.711 0.929199C134.963 0.929199 128.393 7.99947 128.393 17.0013C128.393 26.0032 134.963 33.0734 144.711 33.0734C154.459 33.0734 161.029 26.0032 161.029 17.0013C161.029 7.99947 154.459 0.929199 144.711 0.929199ZM144.711 32.0165C137.859 32.0165 133.338 27.0601 133.338 17.0013C133.338 6.94258 137.859 1.9861 144.711 1.9861C151.563 1.9861 156.084 6.94258 156.084 17.0013C155.943 27.0601 151.422 32.0165 144.711 32.0165ZM79.4755 15.3613L76.2614 13.2475C73.6477 11.6075 71.7404 10.0768 71.7404 7.08836C71.7404 3.91767 73.9303 1.9861 77.2857 1.9861C82.0891 1.9861 83.1134 6.03146 83.5373 8.91059H84.1024C84.1024 8.61903 84.2437 7.41636 84.2437 5.92212C84.2437 3.95411 84.1024 2.93366 84.1024 2.93366C83.8198 2.6421 81.3474 1.29365 77.5329 1.29365C71.8464 1.29365 68.8089 4.90167 68.8089 9.09282C68.8089 12.2635 70.1157 15.3978 74.3541 17.9489L77.5682 20.0627C80.0406 21.7027 82.2304 23.3791 82.2304 26.5134C82.2304 30.2672 79.758 32.0894 76.1201 32.0894C71.5992 32.0894 69.7272 29.2467 68.5616 23.9623H67.9965C67.9965 24.8734 67.8552 25.7481 67.8552 27.2787C67.8552 29.0645 67.9965 30.5952 67.9965 30.5952C68.1378 30.741 70.8928 33.0005 75.6963 33.0005C81.8066 33.0005 85.3033 29.5383 85.3033 24.436C85.3033 20.6093 83.5726 18.0582 79.4755 15.3613ZM111.97 2.13187V2.89721C113.877 3.04299 114.725 3.18877 115.043 4.683C115.325 5.88568 115.325 7.99947 115.325 11.1337V15.9444H99.3252V10.9879C99.3252 7.81725 99.3252 5.7399 99.6078 4.53723C99.8903 3.04299 100.773 3.04299 102.681 2.75143V2.13187C102.681 2.13187 99.7844 2.27765 97.4533 2.27765C95.2635 2.27765 92.9323 2.13187 92.2259 2.13187V2.89721C94.1332 3.04299 94.9809 3.18877 95.2988 4.683C95.5813 5.88568 95.5813 7.99947 95.5813 11.1337V23.1605C95.5813 26.3312 95.5813 28.4085 95.2988 29.6112C95.0162 31.1054 94.1332 31.1054 92.2259 31.397V32.1623C92.9677 32.1623 95.2988 32.0165 97.4533 32.0165C99.7844 32.0165 102.681 32.1623 102.681 32.1623V31.397C100.773 31.1054 99.7844 30.9596 99.4665 29.429C99.1839 28.2263 99.1839 26.1125 99.1839 22.9783V17.1471H115.184V23.0147C115.184 26.1854 115.184 28.2627 114.901 29.4654C114.619 30.9596 113.736 30.9596 111.828 31.2512V32.0165C112.57 32.0165 114.901 31.8708 117.056 31.8708C119.387 31.8708 122.283 32.0165 122.283 32.0165V31.2512C120.694 31.1054 119.811 30.9596 119.528 29.4654C119.246 28.2627 119.246 26.1489 119.246 23.0147V10.9879C119.246 7.81725 119.246 5.7399 119.528 4.53723C119.811 3.04299 120.694 3.04299 122.601 2.75143V2.13187C122.601 2.13187 119.705 2.27765 117.374 2.27765C115.007 2.27765 112.676 2.13187 111.97 2.13187Z" fill="#D1D5DB"/>
</g>
<defs>
<clipPath id="clip0_29487_1480">
<rect width="160.599" height="32.1485" fill="white" transform="translate(0.429688 0.925781)"/>
</clipPath>
</defs>
</svg>
