<svg width="201" height="34" viewBox="0 0 201 34" fill="none" xmlns="http://www.w3.org/2000/svg">
<g clip-path="url(#clip0_29487_1478)">
<path d="M5.61885 32.0078H0.424316V1.6876H7.25142C14.6722 1.6876 18.531 7.32502 18.531 12.9624C18.531 18.5999 14.5238 24.2373 7.99349 24.2373H5.61885V32.0078ZM5.61885 19.2093H7.69666C11.407 19.2093 13.188 16.0097 13.188 12.9624C13.188 9.91518 11.2586 6.71557 7.103 6.71557H5.61885V19.2093ZM32.9272 32.4649C26.1001 32.4649 21.4993 27.5893 21.4993 20.2759V1.6876H26.8422V20.1235C26.8422 24.8467 29.0685 27.2845 33.0757 27.2845C38.1218 27.2845 39.1607 23.3231 39.1607 20.1235V1.6876H44.5036V20.2759C44.3552 27.5893 39.7543 32.4649 32.9272 32.4649ZM62.3135 32.0078H47.9172V1.6876H53.2601V26.8274H62.3135V32.0078ZM78.7875 32.0078H64.3913V1.6876H69.7342V26.8274H78.7875V32.0078ZM118.414 32.0078H109.361V1.6876H114.852C117.969 1.6876 120.492 1.83996 122.273 3.05886C124.945 4.58249 126.28 7.17265 126.28 10.3723C126.28 12.5054 125.39 14.3337 123.906 15.705C126.726 17.2286 128.21 19.6664 128.21 23.1707C128.358 28.0464 123.906 32.0078 118.414 32.0078ZM114.556 26.8274H117.376C122.867 26.8274 122.867 23.7802 122.867 22.866C122.867 21.9518 122.867 18.9046 117.524 18.9046H114.556V26.8274ZM114.556 14.029H116.633C118.563 14.029 120.937 13.4195 120.937 10.3723C120.937 8.84864 120.492 6.71557 116.337 6.71557H114.407L114.556 14.029ZM149.136 32.0078H131.03V1.6876H149.136V6.86793H136.373V14.029H148.394V19.0569H136.373V26.8274H149.136V32.0078ZM179.116 32.0078H173.031L170.063 24.0849H159.229L156.26 32.0078H150.62L162.642 1.83996H166.798L179.116 32.0078ZM161.01 19.0569H168.133L164.572 9.91518L161.01 19.0569ZM191.286 26.8274C192.028 28.5034 192.919 30.1794 193.958 31.8554H200.488C199.004 29.57 197.52 26.6751 196.332 24.2373L194.106 19.6664C195.442 18.9046 196.629 17.838 197.52 16.4668C198.41 14.9432 198.855 13.2672 198.855 11.2864C198.855 5.3443 194.551 1.83996 187.576 1.83996H180.452V32.0078H185.646V21.7995C185.646 21.7995 186.982 21.7995 188.763 21.4948C189.357 22.7137 190.247 24.6944 191.286 26.8274ZM185.646 16.3144V6.86793H187.279C191.435 6.86793 193.513 8.39156 193.513 11.4388C193.513 15.5526 190.247 16.4668 187.427 16.4668H185.646V16.3144ZM101.05 24.9991C101.05 23.9326 101.198 23.0184 101.495 22.1042C102.089 20.4282 102.979 19.2093 104.167 19.0569H104.315V14.029C100.605 14.029 97.6363 16.6191 96.7458 20.1235L89.0282 11.4388C88.2861 10.677 87.9893 9.91518 87.9893 9.15337C87.9893 8.39156 88.2861 7.62974 88.8798 7.02029C89.4734 6.41084 90.2155 6.10611 90.9576 6.10611C91.6997 6.10611 92.4417 6.41084 93.0354 7.02029C93.3322 7.32502 93.4807 7.62974 93.6291 7.93447L98.0815 5.64903C97.6363 4.88721 97.191 4.1254 96.5974 3.36359C95.1132 1.83996 93.0354 0.925781 90.9576 0.925781C88.8798 0.925781 86.9504 1.6876 85.3178 3.36359C83.8337 4.88721 82.9432 7.02029 82.9432 9.15337C82.9432 11.1341 83.6852 13.2672 85.1694 14.7908C82.4979 16.4668 80.5685 19.514 80.5685 23.0184C80.5685 28.5034 84.8726 33.0743 90.3639 33.0743C93.4807 33.0743 96.3005 31.7031 98.2299 29.57L100.308 31.8554H107.283L101.05 24.9991ZM90.5124 28.0464C87.8409 28.0464 85.7631 25.7609 85.7631 23.0184C85.7631 21.0377 87.0988 19.3617 88.8798 18.7522L95.1132 25.7609C93.9259 27.1322 92.2933 28.0464 90.5124 28.0464Z" fill="#D1D5DB"/>
</g>
<defs>
<clipPath id="clip0_29487_1478">
<rect width="200.228" height="32.1485" fill="white" transform="translate(0.342285 0.925781)"/>
</clipPath>
</defs>
</svg>
