<svg width="181" height="44" viewBox="0 0 181 44" fill="none" xmlns="http://www.w3.org/2000/svg">
<path fill-rule="evenodd" clip-rule="evenodd" d="M6.42172 2.71221C6.42172 1.76427 6.57535 1.60557 8.71797 1.60557C12.697 1.60557 14.5334 4.29281 14.5334 7.29638C14.5334 9.66834 13.6157 11.0913 12.697 11.7229C11.6257 12.6719 10.2481 12.6719 9.02421 12.6719C7.18782 12.6719 6.72796 12.6719 6.57535 12.5143C6.42172 12.3566 6.42172 12.0392 6.42172 11.4076V2.71221ZM3.51505 19.3106C3.51505 23.1045 3.51505 23.5806 1.37243 23.8959L0.606334 24.0535C0.300099 24.2122 0.453729 24.8449 0.606334 24.8449H9.32942C9.48202 24.8449 9.63565 24.2122 9.32942 24.0535L8.56332 23.8969C6.57433 23.5806 6.4207 23.1056 6.4207 19.3117V14.7275C6.4207 13.9372 6.57433 13.7796 8.10448 13.7796C9.63463 13.7796 10.0935 14.2536 10.7059 15.0439C11.7772 16.6245 13.1548 19.1541 14.0725 20.577C16.675 24.2143 18.5103 25.1623 21.418 25.1623C22.1841 25.1623 22.643 25.1623 23.1018 25.0036C23.2544 24.847 23.1018 24.5307 22.9492 24.5307C22.0315 24.372 21.1128 24.0556 20.5003 23.423C18.2041 21.3684 16.2151 18.5225 13.46 13.7796C13.3074 13.4633 13.0012 12.9893 13.3074 12.8317C14.9912 12.0403 17.7452 10.1434 17.7452 6.66583C17.7452 4.13623 16.3677 2.55563 14.6839 1.60663C13.1538 0.658692 11.0111 0.5 8.86853 0.5C5.34836 0.5 2.89951 0.657641 0.909497 0.816336C0.603262 0.973973 0.603262 1.449 0.909497 1.76427H1.98081C3.51198 2.0806 3.51198 2.71221 3.51198 6.1908V19.3106H3.51505ZM34.2758 24.3699C28.3068 24.3699 26.1641 18.3627 26.1641 13.7785C26.1641 6.82241 30.2968 4.60915 33.3571 4.60915C39.1725 4.60915 41.4687 10.2999 41.4687 15.3591C41.4687 21.525 37.9485 24.3699 34.2758 24.3699ZM33.9695 25.3188C39.7849 25.3188 44.3764 20.7347 44.3764 14.4112C44.3764 8.87804 40.8552 3.6612 33.9695 3.6612C27.6943 3.6612 23.1038 8.5617 23.1038 14.7275C23.1038 20.2596 27.2355 25.3188 33.9695 25.3188ZM53.4057 25.3188C50.8043 25.3188 49.1205 24.5296 48.6616 24.0546C48.2028 23.4219 47.8966 21.2097 47.744 19.7857C47.8966 19.4693 48.3564 19.4693 48.509 19.628C48.9679 21.2097 50.1928 24.3709 53.712 24.3709C56.3144 24.3709 57.5384 22.6327 57.5384 20.7347C57.5384 19.3117 57.2321 17.8898 55.0895 16.3081L52.1818 14.4112C50.6517 13.4633 48.8153 11.5653 48.8153 9.03568C48.8153 6.18975 51.1105 3.66015 55.0895 3.66015C56.0082 3.66015 57.0795 3.81778 57.8436 4.13411C58.3034 4.29175 58.6097 4.29175 58.9149 4.29175C59.2211 5.08205 59.5274 6.82135 59.5274 8.08562C59.3747 8.24326 58.9149 8.40195 58.7623 8.24326C58.3034 6.66266 57.5384 4.60703 54.6296 4.60703C51.5683 4.60703 50.9569 6.66265 50.9569 8.08562C50.9569 9.98255 52.487 11.2479 53.5583 12.0371L56.0082 13.4601C57.8436 14.7244 59.681 16.6213 59.681 19.4672C59.681 22.9479 57.2321 25.3188 53.4057 25.3188ZM67.4864 8.87804C67.4864 5.71578 67.4864 5.24181 65.65 4.92547H65.1912C65.0386 4.76784 65.0386 4.13517 65.1912 4.13517H78.5057C78.812 4.60914 78.9656 6.82347 79.1182 8.24537C78.9656 8.40301 78.5057 8.56171 78.3521 8.24537C77.8932 6.82241 77.587 5.71578 76.0569 5.39945C75.4444 5.24181 74.3731 5.24181 72.9966 5.24181H70.8539C69.9352 5.24181 69.9352 5.24181 69.9352 6.34844V12.673C69.9352 13.4633 70.0889 13.4633 71.0065 13.4633H72.6903C74.0679 13.4633 74.9855 13.4633 75.2918 13.3056C75.7506 13.1469 75.9043 12.9893 76.0569 12.199L76.3631 10.9337C76.3631 10.776 76.9756 10.776 77.1282 10.9337C77.1282 11.724 76.9756 12.9893 76.9756 14.0959C76.9756 15.2026 77.1282 16.4668 77.1282 17.0995C76.9756 17.4158 76.3631 17.4158 76.2105 17.0995L76.0558 15.9918C75.9032 15.3591 75.7496 14.8852 75.1382 14.7275C74.6793 14.5699 73.9142 14.5699 72.6893 14.5699H71.0055C70.0878 14.5699 69.9342 14.5699 69.9342 15.3602V19.7867C69.9342 21.526 70.0878 22.6337 70.5467 23.1066C70.8529 23.423 71.618 23.7393 74.2195 23.7393C76.5157 23.7393 77.4334 23.7393 78.0459 23.423C78.6583 23.1066 79.4234 22 80.1885 20.2618C80.4947 20.1041 80.8009 20.2618 80.9535 20.5781C80.8009 21.6847 80.0359 24.0556 79.576 24.847H64.7313C64.4251 24.847 64.4251 24.2143 64.5777 24.0556H65.649C67.3328 23.8991 67.4854 23.423 67.4854 20.1041V8.87804H67.4864ZM81.2598 4.76678C81.1072 4.60914 81.1072 4.13411 81.4124 4.13411H87.8402C88.1465 4.13411 88.1465 4.60808 87.9929 4.76678L87.2278 4.92442C86.6153 4.92442 86.3101 5.08205 86.3101 5.39838C86.3101 5.87235 86.9226 7.45296 87.8402 9.66728C89.524 13.4612 91.3594 17.4137 93.0442 21.2076C93.8103 19.6259 94.5743 17.8877 95.3404 16.1484C95.6467 15.6744 95.7983 15.0418 95.7983 14.8841C95.9519 14.7265 95.7983 14.5678 95.6467 14.0938C94.587 11.5871 93.4638 9.10952 92.2781 6.66372C91.8203 5.71472 91.3604 4.92442 90.4427 4.92442L89.6777 4.76678C89.3714 4.60914 89.525 4.13411 89.6777 4.13411H96.2591C96.4107 4.13411 96.5654 4.60808 96.2591 4.76678L95.493 4.92442C94.4228 4.92442 94.2691 5.24075 94.8806 6.66372C95.493 8.08668 96.4107 10.1412 97.1768 12.0382C97.7893 10.7739 98.4007 9.66729 99.0132 7.92799C100.083 5.2397 99.9309 4.92442 99.0132 4.92442L98.0955 4.76678C97.9419 4.45045 97.9419 4.13411 98.0955 4.13411H103.911C104.062 4.13411 104.062 4.60808 103.911 4.76678L103.145 4.92442C101.768 4.92442 101.308 6.34738 100.544 7.61165C99.9319 8.87698 98.708 11.5642 98.2481 12.6708C98.0965 12.9872 97.9419 13.3035 97.9419 13.4612L98.2481 14.0938C99.1658 16.4647 100.238 18.8367 101.308 21.2076C102.226 18.9943 103.145 16.9387 103.911 14.7265C104.523 13.1448 106.207 9.03568 106.36 8.40301C106.82 7.29638 107.277 6.03105 107.277 5.55814C107.277 5.24181 106.971 4.92547 106.36 4.92547L105.442 4.76784C105.136 4.61021 105.136 4.13517 105.442 4.13517H111.105C111.411 4.13517 111.411 4.60915 111.256 4.76784L110.644 4.92547C109.114 5.08311 108.808 6.03211 107.125 10.301L104.829 15.6765C103.605 18.8388 102.38 21.8424 101.156 25.1623C101.002 25.3188 100.85 25.3188 100.696 25.3188C100.544 25.3188 100.39 25.3188 100.238 25.1623C99.3205 22.474 97.6357 18.5214 96.5654 16.3081C95.493 18.5214 93.6567 22.6327 92.8926 25.1623C92.739 25.3188 92.5843 25.3188 92.4327 25.3188C92.2791 25.3188 92.1265 25.3188 91.9749 25.1623C91.5151 23.898 90.2901 21.051 89.9839 20.1031C87.9949 15.8342 86.1585 11.5663 84.1685 7.1398C83.556 5.87447 83.2508 5.08417 82.0259 4.92653L81.2598 4.76678ZM122.582 24.3699C116.613 24.3699 114.47 18.3627 114.47 13.7785C114.47 6.82241 118.603 4.60915 121.663 4.60915C127.479 4.60915 129.775 10.2999 129.775 15.3591C129.775 21.525 126.254 24.3699 122.582 24.3699ZM122.276 25.3188C128.091 25.3188 132.682 20.7347 132.682 14.4112C132.682 8.87804 129.16 3.6612 122.276 3.6612C116.001 3.6612 111.41 8.5617 111.41 14.7275C111.409 20.2596 115.542 25.3188 122.276 25.3188ZM146.762 24.3699C140.793 24.3699 138.651 18.3627 138.651 13.7785C138.651 6.82241 142.783 4.60915 145.844 4.60915C151.659 4.60915 153.953 10.2999 153.953 15.3591C153.953 21.525 150.435 24.3699 146.762 24.3699ZM146.456 25.3188C152.271 25.3188 156.862 20.7347 156.862 14.4112C156.862 8.87804 153.495 3.6612 146.456 3.6612C140.181 3.6612 135.59 8.5617 135.59 14.7275C135.59 20.2596 139.721 25.3188 146.456 25.3188ZM164.667 7.92905C164.667 6.50608 164.667 5.71577 164.974 5.55814C165.28 5.24181 166.197 5.08311 168.034 5.08311C175.839 5.08311 177.522 10.9326 177.522 14.2525C177.522 20.102 174.922 24.0535 168.953 24.0535C167.116 24.0535 165.892 23.7372 165.28 22.7892C164.822 21.9989 164.667 21.0499 164.667 19.3106V7.92905ZM162.219 20.102C162.219 23.4219 162.066 23.7382 160.383 24.0535H159.617C159.465 24.2122 159.617 24.8449 159.771 24.8449H163.595C164.513 24.8449 166.504 25.0015 168.494 25.0015C170.788 25.0015 173.237 24.6851 175.227 23.5795C178.593 21.5239 180.43 18.203 180.43 14.2515C180.43 10.1413 178.44 6.50502 174.308 5.08206C172.472 4.29175 170.329 4.13411 167.727 4.13411C165.126 4.13411 162.675 4.13412 160.075 4.29175C159.769 4.44939 159.921 4.92442 160.075 5.08206L160.839 5.2397C162.063 5.39733 162.217 6.02999 162.217 8.24326V20.102H162.219ZM8.56434 35.4372C8.56434 34.4893 8.56434 33.6969 8.41174 33.5403C8.20256 33.3421 7.93049 33.2296 7.64666 33.224L7.34043 33.0653C7.18782 33.0653 7.18782 32.9066 7.34043 32.9066H10.8606C11.0132 32.9066 11.0132 33.0653 10.8606 33.0653L10.708 33.224C10.2491 33.224 10.0955 33.3806 9.94291 33.5403C9.79031 33.6969 9.79031 34.4882 9.79031 35.4372V37.1755C9.79031 37.6505 9.79031 37.6505 10.4028 37.6505H14.9932C15.6057 37.6505 15.7583 37.6505 15.7583 37.1755V35.4372C15.7583 34.4893 15.6057 33.6969 15.4531 33.5403C15.3005 33.3816 14.9932 33.224 14.8406 33.224L14.5344 33.0653C14.3818 33.0653 14.3818 32.9066 14.5344 32.9066H18.0546C18.0546 32.9066 18.2072 33.0653 18.0546 33.0653L17.7483 33.224C17.5957 33.224 17.1358 33.3806 16.9832 33.5403C16.8306 33.6969 16.8306 34.4882 16.8306 35.4372V40.8117C16.8306 41.7597 16.8306 42.5499 16.9832 42.8652C17.1358 43.0239 17.5957 43.0239 17.7483 43.0239L18.0546 43.1805C18.2072 43.1805 18.2072 43.3392 18.0546 43.3392H14.5344C14.3818 43.3392 14.3818 43.1805 14.5344 43.1805L14.8406 43.0239C15.1469 43.0239 15.3005 43.0239 15.4531 42.7076C15.6057 42.5489 15.7583 41.7596 15.7583 40.8106V38.5974C15.7583 38.1224 15.6057 38.1224 14.9932 38.1224H10.4018C9.78928 38.1224 9.78928 38.1224 9.78928 38.5974V40.8106C9.78928 41.7586 9.78928 42.5489 9.94189 42.7076C10.0945 43.0239 10.4007 43.0239 10.707 43.0239L11.1658 43.1805V43.3392H7.49201C7.3394 43.3392 7.3394 43.1805 7.49201 43.1805H7.64564C7.95187 43.0239 8.25708 43.0239 8.41071 42.7076C8.56332 42.5489 8.56332 41.7596 8.56332 40.8106V35.4372H8.56434ZM26.624 34.3295C29.3791 34.3295 30.2968 36.8591 30.2968 39.0714C30.2968 42.076 28.7656 43.1816 26.9302 43.1816C24.3278 43.1816 23.4101 40.4954 23.4101 38.4397C23.4101 35.2785 25.2465 34.3295 26.624 34.3295ZM26.9302 34.0132C24.1751 34.0132 22.1862 36.0688 22.1862 38.9148C22.1862 41.2846 23.8699 43.4979 26.9302 43.4979C29.5317 43.4979 31.5207 41.601 31.5207 38.7561C31.5207 36.2265 29.9905 34.0132 26.9302 34.0132ZM41.775 34.173H42.6926C42.8452 34.173 42.8452 34.0143 42.9989 33.8545H43.1515C42.9989 34.4893 42.8452 35.5949 42.9989 35.9102H42.6926C42.54 35.4372 42.54 35.1209 42.3864 34.9622C41.9265 34.6459 41.4687 34.4893 40.7026 34.4893H39.7849C39.4787 34.4893 39.4787 34.4893 39.4787 35.122V41.1291C39.4787 41.9183 39.4787 42.7097 39.6313 42.8673C39.7839 43.026 40.0912 43.026 40.2438 43.1837H40.7026V43.3424H37.0298V43.1837L37.6423 43.0271C37.7949 43.0271 38.1012 43.0271 38.2548 42.8684C38.4074 42.7118 38.4074 41.9205 38.4074 41.1302V35.123C38.4074 34.4904 38.4074 34.4904 37.9486 34.4904H37.1835C36.4184 34.4904 35.8059 34.6469 35.4997 34.9633C35.1935 35.2796 35.0409 35.5959 34.8872 35.9112C34.8872 35.9112 34.7346 35.9112 34.581 35.7546C34.8872 35.2796 35.0398 34.3306 35.1935 33.8556H35.3461C35.3461 34.0143 35.4987 34.0143 35.6523 34.174H41.775V34.173ZM47.744 36.3862C47.744 35.4383 47.744 34.9622 47.5914 34.8056C47.4388 34.6469 47.2851 34.4893 46.9789 34.4893L46.8263 34.3306C46.6737 34.3306 46.6737 34.174 46.8263 34.174H52.6417C52.6417 34.4904 52.7953 35.4383 52.7953 35.9123C52.7953 35.9123 52.6417 36.071 52.6417 35.9123C52.4891 35.2796 52.1828 34.8067 51.5704 34.648C51.2641 34.648 50.8053 34.4914 50.1928 34.4914H49.4277C48.9689 34.4914 48.9689 34.648 48.9689 34.648C48.8163 34.8067 48.8163 35.123 48.8163 35.7557V37.969C48.8163 38.2853 48.8163 38.4419 49.2751 38.4419H50.0402C50.4991 38.4419 50.9579 38.2853 51.2641 38.2853C51.4167 38.2853 51.4167 38.1266 51.5704 37.8103L51.724 37.1776C51.724 37.1776 51.8766 37.1776 52.0292 37.3363C52.0292 37.4929 51.8766 38.1255 51.8766 38.6006C51.8766 39.0735 52.0292 39.7061 52.0292 39.8648C51.8766 40.0214 51.724 40.0214 51.724 40.0214L51.5704 39.3887C51.4178 39.0724 51.4178 38.9158 51.2641 38.9158C50.9579 38.7571 50.4991 38.7571 50.0402 38.7571H49.2751C48.8163 38.7571 48.8163 38.7571 48.8163 39.2322V41.1291C48.8163 41.7618 48.8163 42.3934 49.1225 42.7097C49.2751 42.8663 49.4288 43.026 50.6527 43.026C52.1828 43.026 52.7953 42.8673 53.4067 41.4454H53.713C53.5604 41.9183 53.4067 43.026 53.1015 43.3424H46.5201C46.3674 43.3424 46.3674 43.1837 46.5201 43.1837L46.9789 43.0271C47.2851 43.0271 47.4377 42.8684 47.5914 42.8684C47.744 42.5521 47.744 41.9205 47.744 41.1302V36.3862ZM59.2221 41.128C59.2221 41.7607 59.2221 42.3923 59.5284 42.7086C59.681 42.8652 59.8346 43.025 61.0585 43.025C62.5887 43.025 63.0475 42.8663 63.66 41.4444H63.8126C63.8126 41.9173 63.5064 43.025 63.3538 43.3413H57.0785C56.9249 43.3413 56.9249 43.1826 57.0785 43.1826L57.3847 43.026C57.691 43.026 57.9962 43.026 57.9962 42.8673C58.1488 42.551 58.3024 41.9194 58.3024 41.1291V36.3873C58.3024 35.5959 58.1488 34.9633 57.9962 34.6469C57.9962 34.4904 57.691 34.4904 57.3847 34.4904L57.0785 34.3317C56.9249 34.3317 56.9249 34.1751 57.0785 34.1751H60.2924C60.445 34.1751 60.445 34.3317 60.445 34.3317L60.1388 34.4904C59.8326 34.4904 59.5263 34.4904 59.3737 34.6469C59.2211 34.9633 59.2211 35.5949 59.2211 36.3873V41.128H59.2221ZM71.618 34.173H72.0768C72.2294 34.6459 72.3831 35.4372 72.3831 35.9112H72.0768C71.9242 35.2785 71.4644 34.3306 70.2404 34.3306C68.8629 34.3306 68.5567 35.4383 68.5567 35.9112C68.5567 36.8591 69.3228 37.3352 69.7806 37.6516L71.0045 38.4408C71.617 38.9158 72.382 39.7051 72.382 40.9704C72.382 42.551 71.3107 43.5 69.627 43.5C68.5556 43.5 67.9432 43.1837 67.638 43.0271C67.4854 42.7108 67.3317 41.9194 67.3317 41.1302H67.4843C67.7906 41.9194 68.402 43.1837 69.9332 43.1837C71.0045 43.1837 71.617 42.3944 71.617 41.4454C71.617 40.8128 71.4644 40.1812 70.3931 39.5485L69.3217 38.7571C68.403 38.2842 67.7906 37.4929 67.7906 36.3873C67.7906 35.123 68.7083 34.0153 70.3931 34.0153C70.8529 34.0132 71.3118 34.0132 71.618 34.173ZM84.1675 38.2832C85.0852 38.9158 86.4627 40.3367 86.9215 41.602C86.4627 42.2347 85.6976 42.8663 84.6263 42.8663C83.4024 42.8663 82.6363 41.7607 82.6363 40.653C82.6373 39.704 83.2498 38.9148 84.1675 38.2832ZM84.3211 43.4979C85.3924 43.4979 86.4637 42.7086 87.0752 41.9173C87.3814 42.076 87.6876 43.025 87.9929 43.1816C88.1455 43.3403 88.7579 43.4979 89.3704 43.4979C90.1355 43.4979 90.9005 43.3413 91.513 42.55C91.513 42.55 91.513 42.3934 91.3594 42.3934C91.0542 42.7097 90.5953 42.8663 90.1355 42.8663C89.524 42.8663 88.9116 42.7097 88.1465 41.602C87.9572 41.4221 87.8016 41.2076 87.6876 40.9693C88.4527 39.8638 89.0652 39.0724 89.2178 38.5995C89.6777 37.9668 89.9829 37.4918 90.1355 37.3352C90.2881 37.1765 90.4417 37.1765 90.5953 37.0189L91.3594 36.8602V36.7036H88.4527C88.3001 36.8602 88.3001 36.8602 88.4527 37.02H88.9116C89.2178 37.02 89.2178 37.1765 89.2178 37.1765C89.2178 37.3352 89.2178 37.6516 88.9116 38.1245C88.6053 38.9158 88.1465 39.7051 87.534 40.6541C86.7689 39.2322 85.8502 38.4408 85.0852 37.8092C85.544 37.3363 86.3091 36.8613 86.3091 36.071C86.3091 35.2796 85.544 34.4904 84.6253 34.4904C83.7066 34.4904 82.7889 35.2796 82.7889 36.3873C82.7889 37.02 83.2488 37.6516 83.8602 37.9679C82.7889 38.7571 81.7176 39.7061 81.7176 40.9704C81.7176 42.2347 82.4837 43.4979 84.3211 43.4979ZM84.7799 37.4908C84.1675 37.1744 83.556 36.7015 83.556 35.9102C83.556 35.2775 84.0149 34.8046 84.4737 34.8046C85.2388 34.8046 85.545 35.4372 85.545 36.0688C85.545 36.5428 85.2388 37.1755 84.7799 37.4908ZM101.156 34.173C101.156 33.6979 101.156 33.3816 101.307 33.3816C101.461 33.225 101.767 33.225 102.225 33.225C103.91 33.225 104.676 34.4893 104.676 35.7546C104.676 37.02 104.368 37.4929 103.91 37.8081C103.452 38.1234 102.838 38.2832 102.225 38.2832C101.613 38.2832 101.307 38.1245 101.307 38.1245C101.156 38.1245 101.156 37.9679 101.156 37.6516V34.173ZM100.083 40.8117C100.083 41.7597 99.9319 42.55 99.7773 42.7086C99.6257 43.025 99.3194 43.025 99.1648 43.025L98.707 43.1816V43.3403H102.38C102.531 43.3403 102.531 43.1816 102.38 43.1816L102.074 43.025C101.92 43.025 101.614 43.025 101.461 42.7086C101.307 42.55 101.155 41.7607 101.155 40.8117V39.0714C101.155 38.5984 101.155 38.5984 102.072 38.5984C102.685 38.5984 102.837 38.755 102.99 39.0714C103.603 39.8627 104.214 40.9683 104.52 41.601C105.593 43.1816 106.357 43.4979 107.735 43.4979H108.499V43.1816C107.887 43.1816 107.582 43.1816 107.275 42.8652C106.205 41.9173 105.439 40.652 104.215 38.5984C104.061 38.4398 104.061 38.2821 104.061 38.1234C104.828 37.9668 106.051 37.0178 106.051 35.5938C106.051 34.4882 105.439 33.6969 104.675 33.3806C104.06 32.9055 103.143 32.9055 102.224 32.9055C101 32.9055 100.081 32.9055 98.8575 33.0642C98.7059 33.0642 98.7059 33.2229 98.8575 33.2229H99.1638C99.6236 33.3795 99.7762 33.5392 99.9299 33.6958C99.9299 33.8524 100.081 34.4872 100.081 35.4362V40.8117H100.083ZM112.634 36.3862C112.634 35.4383 112.634 34.9622 112.48 34.8056C112.329 34.6469 112.174 34.4893 111.868 34.4893L111.562 34.3306V34.174H117.532C117.532 34.4904 117.532 35.4383 117.685 35.9123C117.685 35.9123 117.532 36.071 117.377 35.9123C117.225 35.2796 117.073 34.8067 116.307 34.648C116.001 34.648 115.543 34.4914 115.083 34.4914H114.317C113.859 34.4914 113.704 34.648 113.704 34.648V37.969C113.704 38.2853 113.704 38.4419 114.011 38.4419H114.777C115.389 38.4419 115.847 38.2853 116.001 38.2853C116.152 38.2853 116.307 38.1266 116.46 37.8103V37.1776C116.612 37.1776 116.767 37.1776 116.767 37.3363V39.8648C116.767 40.0214 116.613 40.0214 116.46 40.0214L116.307 39.3887C116.307 39.0724 116.153 38.9158 116.001 38.9158C115.847 38.7571 115.388 38.7571 114.777 38.7571H114.009C113.703 38.7571 113.703 38.7571 113.703 39.2322V41.1291C113.703 41.7618 113.703 42.3934 113.857 42.7097C114.008 42.8663 114.315 43.026 115.387 43.026C117.072 43.026 117.683 42.8673 118.296 41.4454H118.447C118.447 41.9183 118.141 43.026 117.99 43.3424H111.254V43.1837L111.867 43.0271C112.021 43.0271 112.327 42.8684 112.479 42.8684C112.633 42.5521 112.633 41.9205 112.633 41.1302V36.3862H112.634ZM126.254 34.173H126.712C126.865 34.6459 127.018 35.4372 127.018 35.9112H126.712C126.56 35.2785 126.099 34.3306 124.875 34.3306C123.499 34.3306 123.192 35.4383 123.192 35.9112C123.192 36.8591 123.956 37.3352 124.416 37.6516L125.64 38.4408C126.253 38.9158 127.17 39.7051 127.17 40.9704C127.17 42.551 125.947 43.5 124.262 43.5C123.191 43.5 122.579 43.1837 122.274 43.0271C122.12 42.7108 121.968 41.9194 121.968 41.1302H122.119C122.425 41.9194 123.037 43.1837 124.568 43.1837C125.64 43.1837 126.253 42.3944 126.253 41.4454C126.253 40.8128 126.099 40.1812 125.029 39.5485L123.956 38.7571C123.192 38.2842 122.426 37.4929 122.426 36.3873C122.426 35.123 123.344 34.0153 125.029 34.0153C125.488 34.0132 125.949 34.0132 126.254 34.173ZM135.742 34.3295C138.496 34.3295 139.415 36.8591 139.415 39.0714C139.415 42.076 137.885 43.1816 136.048 43.1816C133.448 43.1816 132.529 40.4954 132.529 38.4397C132.529 35.2785 134.365 34.3295 135.742 34.3295ZM136.048 34.0132C133.294 34.0132 131.305 36.0688 131.305 38.9148C131.305 41.2846 132.988 43.4979 136.048 43.4979C138.651 43.4979 140.639 41.601 140.639 38.7561C140.639 36.2265 138.957 34.0132 136.048 34.0132ZM146.456 35.2785C146.456 34.8056 146.456 34.6459 146.608 34.6459C146.608 34.4893 147.067 34.4893 147.374 34.4893C148.904 34.4893 149.516 35.5949 149.516 36.7026C149.516 37.6505 149.21 38.1245 148.904 38.4408C148.444 38.7571 147.986 38.9158 147.374 38.9158C146.761 38.9158 146.608 38.7571 146.456 38.7571V35.2785ZM145.384 41.128C145.384 41.9173 145.384 42.5499 145.232 42.8663C145.079 43.025 144.772 43.025 144.62 43.1826H144.313V43.3413H147.526V43.1826H147.22C147.069 43.026 146.762 43.026 146.608 42.8663C146.456 42.5499 146.456 41.9183 146.456 41.128V39.5474C146.456 39.2311 146.456 39.2311 147.22 39.2311C147.68 39.2311 147.833 39.3877 148.138 39.704C148.598 40.3367 149.055 41.2846 149.362 41.7596C150.434 43.1816 151.047 43.4979 152.27 43.4979H152.883V43.1816C152.423 43.1816 152.117 43.1816 151.811 42.8652C150.893 42.076 150.128 40.9683 149.056 39.2301C149.056 39.0714 148.905 38.9137 149.056 38.755C149.669 38.5984 150.741 37.8071 150.741 36.5418C150.741 35.5938 150.129 34.9612 149.517 34.6448C148.906 34.3285 148.139 34.1719 147.375 34.1719C146.302 34.1719 145.385 34.1719 144.466 34.3285C144.314 34.3285 144.314 34.4872 144.314 34.4872H144.772C145.079 34.4872 145.232 34.6438 145.232 34.8035C145.384 35.1199 145.384 35.5928 145.384 36.3841V41.128ZM161.913 34.173H162.831C162.982 34.173 162.982 34.0143 163.137 33.8545H163.289C163.137 34.4893 163.137 35.5949 163.137 35.9102H162.831C162.831 35.4372 162.677 35.1209 162.525 34.9622C162.218 34.6459 161.607 34.4893 160.995 34.4893H160.077C159.617 34.4893 159.617 34.4893 159.617 35.122V41.1291C159.617 41.9183 159.617 42.7097 159.771 42.8673C159.922 43.026 160.228 43.026 160.383 43.1837H160.841V43.3424H157.168V43.1837L157.781 43.0271C158.087 43.0271 158.24 43.0271 158.393 42.8684C158.547 42.7118 158.547 41.9205 158.547 41.1302V35.123C158.547 34.4904 158.547 34.4904 158.087 34.4904H157.323C156.557 34.4904 155.944 34.6469 155.638 34.9633C155.332 35.2796 155.18 35.5959 155.026 35.9112C155.026 35.9112 154.874 35.9112 154.874 35.7546C155.025 35.2796 155.332 34.3306 155.332 33.8556H155.485C155.485 34.0143 155.637 34.0143 155.792 34.174H161.913V34.173ZM171.249 34.173H171.707C171.86 34.6459 171.86 35.4372 171.86 35.9112H171.707C171.4 35.2785 171.094 34.3306 169.719 34.3306C168.495 34.3306 168.188 35.4383 168.188 35.9112C168.188 36.8591 168.801 37.3352 169.412 37.6516L170.636 38.4408C171.249 38.9158 172.013 39.7051 172.013 40.9704C172.013 42.551 170.943 43.5 169.259 43.5C168.188 43.5 167.576 43.1837 167.271 43.0271C166.965 42.7108 166.811 41.9194 166.811 41.1302H167.117C167.271 41.9194 168.035 43.1837 169.413 43.1837C170.637 43.1837 171.096 42.3944 171.096 41.4454C171.096 40.8128 170.945 40.1812 170.026 39.5485L168.802 38.7571C168.036 38.2842 167.423 37.4929 167.423 36.3873C167.423 35.123 168.341 34.0153 170.026 34.0153C170.331 34.0132 170.943 34.0132 171.249 34.173Z" fill="#D1D5DB"/>
</svg>
