<svg width="17" height="16" viewBox="0 0 17 16" fill="none" xmlns="http://www.w3.org/2000/svg">
<path d="M12.4816 9.54675C12.3072 9.71408 12.2271 9.95608 12.2668 10.1934L12.8652 13.4734C12.9157 13.7514 12.7972 14.0327 12.5623 14.1934C12.3321 14.3601 12.0259 14.3801 11.7748 14.2467L8.79366 12.7067C8.69 12.6521 8.5749 12.6227 8.45711 12.6194H8.2747C8.21143 12.6287 8.1495 12.6487 8.09296 12.6794L5.11114 14.2267C4.96373 14.3001 4.7968 14.3261 4.63324 14.3001C4.23477 14.2254 3.96889 13.8494 4.03418 13.4527L4.63324 10.1727C4.67295 9.93341 4.59285 9.69008 4.41852 9.52008L1.98797 7.18675C1.78469 6.99141 1.71402 6.69808 1.8069 6.43341C1.8971 6.16941 2.1273 5.97675 2.40529 5.93341L5.75058 5.45275C6.00501 5.42675 6.22848 5.27341 6.34291 5.04675L7.81699 2.05341C7.85199 1.98675 7.89709 1.92541 7.95161 1.87341L8.01219 1.82675C8.04383 1.79208 8.08017 1.76341 8.12056 1.74008L8.19393 1.71341L8.30835 1.66675H8.59173C8.84481 1.69275 9.06761 1.84275 9.18405 2.06675L10.6777 5.04675C10.7854 5.26475 10.9947 5.41608 11.2363 5.45275L14.5816 5.93341C14.8643 5.97341 15.1006 6.16675 15.1941 6.43341C15.2823 6.70075 15.2063 6.99408 14.9989 7.18675L12.4816 9.54675Z" fill="#FBBF24"/>
</svg>
